<svg width="131" height="24" viewBox="0 0 131 24" fill="none" xmlns="http://www.w3.org/2000/svg">
<path d="M18.1468 11.84C19.2388 11.84 20.0708 11.84 20.0708 10.696C20.0708 9.838 19.8108 8.46 19.8108 7.108C19.8108 6.25 19.9148 5.002 19.9148 4.768C19.9148 3.988 19.5248 3.52 17.8868 2.844C16.6388 2.35 14.2208 1.674 11.7508 1.674C9.95679 1.674 6.83679 2.038 4.21079 4.144C1.74079 6.094 0.830789 9.058 0.830789 12.412C0.830789 16.13 1.97479 18.782 4.00279 20.524C6.03079 22.266 8.94279 23.072 12.4528 23.072C13.7268 23.072 18.6668 22.786 19.2388 21.434C19.3948 21.07 19.6808 19.12 19.7848 18.678C19.8888 18.236 20.5908 16.052 20.5908 15.532C20.5908 14.934 20.0968 14.622 19.6548 14.622C19.0828 14.622 16.0148 15.402 13.8828 15.402C11.1008 15.402 9.17679 14.778 9.17679 11.684C9.17679 10.514 9.43679 8.356 11.4388 8.356C12.6608 8.356 13.1288 9.11 13.1288 10.176C13.1288 11.398 13.1288 11.84 15.0008 11.84H18.1468ZM30.8799 5.548C25.3159 5.548 21.5459 8.564 21.5459 14.336C21.5459 20.108 25.2899 23.15 30.8799 23.15C36.4699 23.15 40.2139 20.186 40.2139 14.31C40.2139 8.668 36.5479 5.548 30.9059 5.548H30.8799ZM30.8539 11.19C32.3619 11.19 32.5179 13.088 32.5179 14.206C32.5179 15.272 32.4139 17.248 30.9059 17.248C29.4499 17.248 29.2419 15.376 29.2419 14.31C29.2419 13.322 29.4499 11.19 30.8279 11.19H30.8539ZM51.6019 5.99C50.6399 5.99 49.7039 6.276 48.9499 6.9C48.5079 7.264 48.4299 7.264 48.2739 7.264C48.0919 7.264 48.0659 7.186 47.8839 6.588C47.7279 6.042 47.3639 6.016 47.1559 6.016C46.8179 6.016 46.3499 6.198 45.0499 6.198C44.6599 6.198 42.7099 6.016 42.2679 6.016C41.2279 6.016 41.2019 6.9 41.2019 7.108C41.2019 7.446 41.2539 7.654 41.6439 8.2C41.9559 8.642 41.9819 8.85 41.9819 10.54V18.158C41.9819 19.744 41.9299 20.03 41.6439 20.498C41.2539 21.122 41.2019 21.226 41.2019 21.59C41.2019 21.876 41.3059 22.682 42.2679 22.682C42.9699 22.682 44.2699 22.5 45.9339 22.5C47.5199 22.5 48.8199 22.682 49.4179 22.682C50.3279 22.682 50.4579 21.902 50.4579 21.616C50.4579 21.226 50.4059 21.122 50.0159 20.498C49.7819 20.108 49.6779 19.952 49.6779 18.158V16.806C49.6779 15.428 49.4439 15.038 49.4439 14.492C49.4439 13.66 50.0939 13.036 50.9259 13.036C51.1599 13.036 51.9919 13.166 52.2259 13.166C52.8759 13.166 53.0839 12.594 53.0839 12.282C53.0319 11.632 52.9279 11.008 52.9279 10.358C52.9279 8.512 53.0839 7.732 53.0839 7.134C53.0839 5.99 52.1479 5.99 51.6279 5.99H51.6019ZM64.4 20.108C64.4 21.902 64.4 22.682 65.57 22.682C66.376 22.682 67.312 22.5 68.17 22.5C69.522 22.5 70.978 22.682 71.472 22.682C72.356 22.682 72.512 21.928 72.512 21.616C72.512 21.226 72.46 21.122 72.07 20.498C71.758 20.004 71.732 19.796 71.732 18.158V12.178C71.732 11.398 71.706 9.032 70.484 7.576C69.366 6.25 67.65 5.626 65.934 5.626C64.92 5.626 63.49 5.756 62.138 7.108C61.618 7.628 61.488 7.706 61.332 7.706C61.098 7.706 61.072 7.472 61.046 7.082C60.994 6.666 60.916 6.016 60.084 6.016C59.72 6.016 58.628 6.198 57.718 6.198C56.808 6.198 55.924 6.016 55.014 6.016C53.974 6.016 53.948 6.848 53.948 7.108C53.948 7.498 54.026 7.602 54.39 8.2C54.676 8.668 54.728 8.85 54.728 10.54V18.158C54.728 19.744 54.676 20.03 54.39 20.498C54 21.122 53.948 21.226 53.948 21.59C53.948 21.876 54.052 22.682 55.014 22.682C55.742 22.682 57.302 22.5 58.472 22.5C59.98 22.5 61.254 22.682 61.8 22.682C62.658 22.682 62.84 21.98 62.84 21.616C62.84 21.2 62.736 21.07 62.398 20.498C62.164 20.108 62.06 19.952 62.06 18.158V13.504C62.06 13.27 61.982 12.906 61.982 12.724C61.982 12.048 62.398 11.684 63.126 11.684C64.4 11.684 64.4 12.724 64.4 14.076V20.108ZM89.6961 15.766C90.6321 15.766 90.9701 15.428 90.9701 14.05C90.9701 8.538 87.8501 5.626 82.4161 5.626C75.9161 5.626 73.3681 9.656 73.3681 14.388C73.3681 20.524 77.4501 23.072 83.1441 23.072C85.2761 23.072 87.3821 22.734 88.1361 22.552C89.0461 22.344 89.3061 22.084 89.4101 21.538C89.5661 20.758 89.6961 19.848 89.9041 19.172C90.1381 18.418 90.3201 17.846 90.3201 17.638C90.3201 17.378 90.0861 16.962 89.5661 16.962C89.3321 16.962 88.5001 17.17 87.9801 17.274C86.3941 17.586 85.5621 17.664 84.2881 17.664C83.3521 17.664 81.0641 17.508 81.0641 16.104C81.0641 15.766 81.2981 15.766 81.8701 15.766H89.6961ZM81.6881 12.88C81.0121 12.88 80.9081 12.698 80.9081 12.334C80.9081 11.32 81.6101 10.592 82.6241 10.592C83.6641 10.592 84.3141 11.268 84.3141 12.308C84.3141 12.724 84.1321 12.88 83.2741 12.88H81.6881ZM92.7377 18.158C92.7377 19.744 92.6857 20.03 92.3997 20.498C92.0097 21.122 91.9577 21.226 91.9577 21.59C91.9577 21.876 92.0617 22.682 93.0237 22.682C93.7517 22.682 95.2857 22.5 96.4817 22.5C97.9897 22.5 99.2637 22.682 99.8097 22.682C100.668 22.682 100.85 21.98 100.85 21.616C100.85 21.2 100.746 21.07 100.408 20.498C100.174 20.108 100.07 19.952 100.07 18.158V3.546C100.07 3.026 100.07 2.064 99.2117 2.064C98.8737 2.064 97.6257 2.246 96.3517 2.246C95.2597 2.246 94.1937 2.064 93.1017 2.064C92.6857 2.064 91.9577 2.194 91.9577 3.156C91.9577 3.546 92.0097 3.65 92.3997 4.274C92.6857 4.742 92.7377 4.82 92.7377 6.588V18.158ZM106.641 0.789999C105.107 0.789999 102.429 1.05 102.429 2.818C102.429 4.43 104.275 4.82 106.641 4.82C108.747 4.82 110.827 4.534 110.827 2.818C110.827 0.971998 107.915 0.789999 106.667 0.789999H106.641ZM102.767 18.158C102.767 19.744 102.741 20.03 102.429 20.498C102.013 21.122 101.987 21.226 101.987 21.59C101.987 21.85 102.091 22.682 103.053 22.682C103.755 22.682 104.665 22.5 106.719 22.5C108.305 22.5 109.631 22.682 110.203 22.682C111.087 22.682 111.243 21.98 111.243 21.616C111.243 21.2 111.139 21.07 110.801 20.498C110.567 20.108 110.463 19.952 110.463 18.158V10.54C110.463 8.746 110.541 8.59 110.801 8.2C111.191 7.602 111.243 7.498 111.243 7.082C111.243 6.718 111.139 6.016 110.151 6.016C109.345 6.016 108.227 6.328 106.823 6.328C105.133 6.328 104.145 6.016 103.053 6.016C102.377 6.016 101.987 6.432 101.987 7.108C101.987 7.498 102.065 7.602 102.429 8.2C102.741 8.668 102.767 8.902 102.767 10.54V18.158ZM115.647 5.73C114.581 5.73 114.503 6.406 114.451 6.9C114.269 8.252 114.217 8.642 113.905 9.916C113.827 10.28 113.645 10.852 113.645 11.086C113.645 11.424 114.009 11.918 114.607 11.918C114.815 11.918 114.945 11.892 116.193 11.528C117.259 11.216 119.001 10.982 120.015 10.982C121.575 10.982 122.199 11.346 122.199 12.074C122.199 12.412 122.095 12.62 121.809 12.698C121.549 12.776 121.107 12.776 120.457 12.802C115.361 12.828 112.397 14.258 112.397 17.742C112.397 19.952 113.801 22.916 118.091 22.916C120.067 22.916 120.795 22.344 122.043 21.382C122.225 21.226 122.329 21.148 122.485 21.148C122.667 21.148 122.693 21.304 122.771 21.798C122.849 22.266 123.031 22.682 123.681 22.682C124.019 22.682 125.501 22.5 126.177 22.5C127.165 22.5 128.491 22.682 129.115 22.682C130.025 22.682 130.181 21.928 130.181 21.616C130.181 21.226 130.129 21.122 129.739 20.498C129.479 20.108 129.401 19.952 129.401 18.158V12.464C129.401 10.384 129.401 9.006 128.127 7.654C127.035 6.484 125.033 5.626 121.991 5.626C120.951 5.626 119.209 5.704 118.169 5.886C118.013 5.912 117.129 6.094 116.947 6.094C116.791 6.094 116.635 6.016 116.453 5.912C116.271 5.808 115.985 5.73 115.673 5.73H115.647ZM122.095 16.65C122.095 17.248 121.861 18.47 120.509 18.47C119.911 18.47 119.027 18.158 119.027 17.196C119.027 15.766 120.873 15.766 121.367 15.766C122.043 15.766 122.095 16.078 122.095 16.39V16.65Z" fill="#0B4141"/>
</svg>
